HIERARCHY
ROOT Hips
{
	OFFSET -14.64140 90.27770 -84.91600
	CHANNELS 6 Xposition Yposition Zposition Zrotation Xrotation Yrotation
	JOINT Spine
	{
		OFFSET 0.00000 13.20850 -1.60436
		CHANNELS 3 Zrotation Xrotation Yrotation
		JOINT Spine1
		{
			OFFSET 0.00000 8.61716 0.00000
			CHANNELS 3 Zrotation Xrotation Yrotation
			JOINT Spine2
			{
				OFFSET 0.00000 8.61717 0.00000
				CHANNELS 3 Zrotation Xrotation Yrotation
				JOINT Spine3
				{
					OFFSET 0.00000 8.61717 0.00000
					CHANNELS 3 Zrotation Xrotation Yrotation
					JOINT Neck
					{
						OFFSET 0.00000 11.07920 1.10792
						CHANNELS 3 Zrotation Xrotation Yrotation
						JOINT Neck1
						{
							OFFSET 0.00000 7.08032 0.00000
							CHANNELS 3 Zrotation Xrotation Yrotation
							JOINT Head
							{
								OFFSET 0.00000 7.08031 0.00000
								CHANNELS 3 Zrotation Xrotation Yrotation
								End site
								{
									OFFSET 0.00000 0.00000 0.00000
								}
							}
						}
					}
					JOINT RightShoulder
					{
						OFFSET -0.01000 7.91373 5.19711
						CHANNELS 3 Zrotation Xrotation Yrotation
						JOINT RightArm
						{
							OFFSET -18.41580 0.00000 0.00000
							CHANNELS 3 Zrotation Xrotation Yrotation
							JOINT RightForeArm
							{
								OFFSET -29.11090 0.00000 0.00000
								CHANNELS 3 Zrotation Xrotation Yrotation
								JOINT RightHand
								{
									OFFSET -24.65040 0.00000 0.00000
									CHANNELS 3 Zrotation Xrotation Yrotation
									JOINT RightHandThumb1
									{
										OFFSET -5.35114 -0.85590 3.97906
										CHANNELS 3 Zrotation Xrotation Yrotation
										JOINT RightHandThumb2
										{
											OFFSET -4.52789 0.00000 0.00000
											CHANNELS 3 Zrotation Xrotation Yrotation
											JOINT RightHandThumb3
											{
												OFFSET -2.46976 0.00000 0.00000
												CHANNELS 3 Zrotation Xrotation Yrotation
												End site
												{
													OFFSET 0.00000 0.00000 0.00000
												}
											}
										}
									}
									JOINT RightHandIndex1
									{
										OFFSET -14.26970 0.00000 2.88139
										CHANNELS 3 Zrotation Xrotation Yrotation
										JOINT RightHandIndex2
										{
											OFFSET -5.48836 0.00000 0.00000
											CHANNELS 3 Zrotation Xrotation Yrotation
											JOINT RightHandIndex3
											{
												OFFSET -3.01859 0.00000 0.00000
												CHANNELS 3 Zrotation Xrotation Yrotation
												End site
												{
													OFFSET 0.00000 0.00000 0.00000
												}
											}
										}
									}
									JOINT RightHandMiddle1
									{
										OFFSET -14.26970 0.00000 -0.09147
										CHANNELS 3 Zrotation Xrotation Yrotation
										JOINT RightHandMiddle2
										{
											OFFSET -6.17441 0.00000 0.00000
											CHANNELS 3 Zrotation Xrotation Yrotation
											JOINT RightHandMiddle3
											{
												OFFSET -3.56743 0.00000 0.00000
												CHANNELS 3 Zrotation Xrotation Yrotation
												End site
												{
													OFFSET 0.00000 0.00000 0.00000
												}
											}
										}
									}
									JOINT RightHandRing1
									{
										OFFSET -12.69180 0.00000 -3.06433
										CHANNELS 3 Zrotation Xrotation Yrotation
										JOINT RightHandRing2
										{
											OFFSET -5.62556 0.00000 0.00000
											CHANNELS 3 Zrotation Xrotation Yrotation
											JOINT RightHandRing3
											{
												OFFSET -3.56744 0.00000 0.00000
												CHANNELS 3 Zrotation Xrotation Yrotation
												End site
												{
													OFFSET 0.00000 0.00000 0.00000
												}
											}
										}
									}
									JOINT RightHandPinky1
									{
										OFFSET -11.11390 0.00000 -6.03719
										CHANNELS 3 Zrotation Xrotation Yrotation
										JOINT RightHandPinky2
										{
											OFFSET -4.52789 0.00000 0.00000
											CHANNELS 3 Zrotation Xrotation Yrotation
											JOINT RightHandPinky3
											{
												OFFSET -2.46976 0.00000 0.00000
												CHANNELS 3 Zrotation Xrotation Yrotation
												End site
												{
													OFFSET 0.00000 0.00000 0.00000
												}
											}
										}
									}
								}
							}
						}
					}
					JOINT LeftShoulder
					{
						OFFSET 0.01000 7.91373 5.19711
						CHANNELS 3 Zrotation Xrotation Yrotation
						JOINT LeftArm
						{
							OFFSET 18.41580 0.00000 0.00000
							CHANNELS 3 Zrotation Xrotation Yrotation
							JOINT LeftForeArm
							{
								OFFSET 29.11090 0.00000 0.00000
								CHANNELS 3 Zrotation Xrotation Yrotation
								JOINT LeftHand
								{
									OFFSET 24.65040 0.00000 0.00000
									CHANNELS 3 Zrotation Xrotation Yrotation
									JOINT LeftHandThumb1
									{
										OFFSET 5.35114 -0.85590 3.97906
										CHANNELS 3 Zrotation Xrotation Yrotation
										JOINT LeftHandThumb2
										{
											OFFSET 4.52789 0.00000 0.00000
											CHANNELS 3 Zrotation Xrotation Yrotation
											JOINT LeftHandThumb3
											{
												OFFSET 2.46977 0.00000 0.00000
												CHANNELS 3 Zrotation Xrotation Yrotation
												End site
												{
													OFFSET 0.00000 0.00000 0.00000
												}
											}
										}
									}
									JOINT LeftHandIndex1
									{
										OFFSET 14.26970 0.00000 2.88139
										CHANNELS 3 Zrotation Xrotation Yrotation
										JOINT LeftHandIndex2
										{
											OFFSET 5.48836 0.00000 0.00000
											CHANNELS 3 Zrotation Xrotation Yrotation
											JOINT LeftHandIndex3
											{
												OFFSET 3.01859 0.00000 0.00000
												CHANNELS 3 Zrotation Xrotation Yrotation
												End site
												{
													OFFSET 0.00000 0.00000 0.00000
												}
											}
										}
									}
									JOINT LeftHandMiddle1
									{
										OFFSET 14.26970 0.00000 -0.09147
										CHANNELS 3 Zrotation Xrotation Yrotation
										JOINT LeftHandMiddle2
										{
											OFFSET 6.17440 0.00000 0.00000
											CHANNELS 3 Zrotation Xrotation Yrotation
											JOINT LeftHandMiddle3
											{
												OFFSET 3.56744 0.00000 0.00000
												CHANNELS 3 Zrotation Xrotation Yrotation
												End site
												{
													OFFSET 0.00000 0.00000 0.00000
												}
											}
										}
									}
									JOINT LeftHandRing1
									{
										OFFSET 12.69180 0.00000 -3.06433
										CHANNELS 3 Zrotation Xrotation Yrotation
										JOINT LeftHandRing2
										{
											OFFSET 5.62556 0.00000 0.00000
											CHANNELS 3 Zrotation Xrotation Yrotation
											JOINT LeftHandRing3
											{
												OFFSET 3.56744 0.00000 0.00000
												CHANNELS 3 Zrotation Xrotation Yrotation
												End site
												{
													OFFSET 0.00000 0.00000 0.00000
												}
											}
										}
									}
									JOINT LeftHandPinky1
									{
										OFFSET 11.11390 0.00000 -6.03719
										CHANNELS 3 Zrotation Xrotation Yrotation
										JOINT LeftHandPinky2
										{
											OFFSET 4.52789 0.00000 0.00000
											CHANNELS 3 Zrotation Xrotation Yrotation
											JOINT LeftHandPinky3
											{
												OFFSET 2.46976 0.00000 0.00000
												CHANNELS 3 Zrotation Xrotation Yrotation
												End site
												{
													OFFSET 0.00000 0.00000 0.00000
												}
											}
										}
									}
								}
							}
						}
					}
					JOINT pCube4
					{
						OFFSET 0.00000 10.91090 1.10792
						CHANNELS 3 Zrotation Xrotation Yrotation
						End site
						{
							OFFSET 0.00000 0.00000 0.00000
						}
					}
				}
			}
		}
	}
	JOINT RightUpLeg
	{
		OFFSET -9.98441 0.00000 0.00000
		CHANNELS 3 Zrotation Xrotation Yrotation
		JOINT RightLeg
		{
			OFFSET 0.00000 -42.11790 0.00000
			CHANNELS 3 Zrotation Xrotation Yrotation
			JOINT RightFoot
			{
				OFFSET 0.00000 -45.00020 -0.00001
				CHANNELS 3 Zrotation Xrotation Yrotation
				JOINT RightForeFoot
				{
					OFFSET 0.00000 -3.74820 0.00000
					CHANNELS 3 Zrotation Xrotation Yrotation
					JOINT RightToeBase
					{
						OFFSET 0.00000 0.06325 14.43120
						CHANNELS 3 Zrotation Xrotation Yrotation
						End site
						{
							OFFSET 0.00000 0.00000 0.00000
						}
					}
				}
			}
		}
	}
	JOINT LeftUpLeg
	{
		OFFSET 9.98441 0.00000 0.00000
		CHANNELS 3 Zrotation Xrotation Yrotation
		JOINT LeftLeg
		{
			OFFSET 0.00000 -42.11800 0.00000
			CHANNELS 3 Zrotation Xrotation Yrotation
			JOINT LeftFoot
			{
				OFFSET 0.00000 -45.00070 0.00000
				CHANNELS 3 Zrotation Xrotation Yrotation
				JOINT LeftForeFoot
				{
					OFFSET 0.00000 -3.74824 0.00000
					CHANNELS 3 Zrotation Xrotation Yrotation
					JOINT LeftToeBase
					{
						OFFSET 0.00000 0.06325 14.43110
						CHANNELS 3 Zrotation Xrotation Yrotation
						End site
						{
							OFFSET 0.00000 0.00000 0.00000
						}
					}
				}
			}
		}
	}
}
MOTION
Frames: 4
Frame Time: 0.050000
0.016015374124714828 -0.036952941905209605 -0.04613421492938846 0.016336329833157134 -0.04579102108593754 -0.007833054348388607 -4.67937531629437 -0.7917769314025158 -0.43560157789986304 -1.014260188769527 3.49038068960572 0.3896486362467126 -1.4931277394601066 -2.278874742115376 -0.5097461995167725 -0.7104069203667639 -0.12510154461627793 -0.8282774822970009 0.2664568382119931 12.47565002565118 -0.27090940631561106 0.3429154830481494 -0.16452556749144018 -2.803458088621149 0.5941546514415036 -15.157735845063478 -0.2138050147858095 -6.996038128420651 2.378717888133393 -12.491033867651737 58.490132959165024 14.823208001331508 29.586280644724788 5.769338028337101 0.5282802912274411 102.29260532181708 20.645139070221795 -0.7870300770410993 -3.962248710621993 4.483427625595696 -0.09486284571203066 -1.5501929692188974 -0.02338664076374634 0.00553727736890471 -56.22574456020304 0.009992521943356831 0.0388366032674727 -56.191766231700605 -38.760617262346344 -0.03295663125733472 -0.02959181799853361 -0.0015482044497704963 0.04115415881758911 0.020758513665251284 -0.008941692291826356 0.03756082349716864 0.010515991751312362 -36.64897483178372 -0.030301922096867696 -0.002472473796238511 0.004394495771708798 -0.021350235051079993 -0.02746314499141477 -0.010643559368744414 -0.022157126989241115 0.00703188376877968 -19.736676163878474 0.005442627258202711 0.0145742848002019 -0.0007774831614037867 0.03914370942171951 -0.017907762013736728 -0.044090415842704254 0.04276404623321317 -0.013197472448279783 24.02330792967411 -0.008949752311890274 0.013333846012383466 28.82570736546806 0.01824554165452147 0.022005518397396177 28.85838933379244 -0.0007826827531515562 -0.020257257793685455 7.084186191381513 1.5979342890875525 11.58399314215014 -63.39385308553927 22.629287380980536 -20.810412245931676 -44.59944805865451 5.480050722058061 -94.28219041457591 -11.416194592068736 -2.3652415988156004 0.7194071495127281 -0.44729723821675704 0.0805625649948439 -8.104376914939074 0.017160341018605717 0.013444229867080508 44.52872283217559 -0.003571094896301518 -0.03422665786632042 44.612965598425426 12.460917769397255 -0.04119535524439175 0.03045969940461744 0.009035466784685333 0.013555220484541148 -0.006388934193001743 -0.00710098398401734 -0.014078105507750937 -0.04869495242534712 11.065297933328495 0.031104954860952782 0.04730305345196373 0.023128860870931616 -0.025025909425792654 0.03240716868234917 -0.04825012757888234 -0.0008728761211676338 -0.007534809670372377 4.816602302945098 -0.04561442828882583 0.009468396150806144 0.012392257656400977 -0.04284044264426928 0.018095926543605607 -0.0024377854981113877 0.025425409985542834 -0.01780859656078614 -5.610227151298275 0.015072658819591628 -0.04305812077263818 -6.7571569092804395 -0.042804959697130156 0.004413478783285635 -6.730473525138649 0.0395864523843592 -0.02091300474459118 -0.04245650713453325 -0.03924938817091932 -0.044296623864403736 8.075263933888728 3.516643646375629 -19.217865682166806 0.026174876997801036 10.358179309740738 -0.028393916196985638 -5.640196403041059 -15.668621848217471 3.1680830793837904 0.008896972881622264 0.021773574955815916 0.011842148707598607 0.031546017562060186 4.693969447681385 -0.027560705684221767 12.42717160431889 -8.18865764684601 6.881779804509416 0.02063100224424733 46.33543498744564 0.0029646100687134268 -4.348989977991362 -14.698631657909011 -3.839549263690563 -0.047791393318998995 0.007637312715313056 -0.024192093686048785 -0.037517942308126155 -10.747621274658098 0.027609827046387286 
0.03784277201579038 0.007842285796008533 0.029404850661473855 0.01014395479545389 -0.03136154282374785 0.008209714461814021 -4.676326067049757 -0.7242241847589946 -0.46036246404515635 -0.9634430469874847 3.4400190636642556 0.42127373672102614 -1.4667785463671175 -2.2738767726493987 -0.7160631506614051 -0.7121679540879365 -0.09563127871860166 -0.7765031267832408 0.26132744718497036 12.435208110521915 -0.23859461684330277 0.39651400408337856 -0.0985091181150541 -2.691428895718164 0.6178274296497184 -15.048774414498332 -0.21303585263637287 -6.935693504768462 2.377821742802321 -12.588874403611204 59.88823479394571 14.250644908345851 28.409328002678823 6.065984481015737 0.7616144025822512 101.25623860204183 21.263920947526397 -0.7131613441115789 -4.479573471554833 4.495271529693241 -0.10939064767151062 -1.5991768541734852 0.03907459974755457 -0.009768204227912587 -56.280091706946514 0.026763112106971895 0.029415830329853555 -56.191844703338234 -38.775924856530274 0.029458320690036358 0.033575411027012385 -0.046867973028175566 -0.0031819795814816837 -0.03924691558681958 -0.007246160716154188 -0.0014166567745474555 -0.014373247282653535 -36.72800352826387 -0.0379858625953434 0.01647421022927612 -0.0070389824244102076 0.022564381260914257 0.031865604141298916 -0.03701421202924368 -0.020327676667861738 0.022436542979908422 -19.76313624846428 -0.01398580859918134 0.022742098395508784 -0.04200860080243775 0.020327283333917322 -0.01188626870981098 0.009688988330369797 0.04144919721969868 -0.03258419417575959 24.0451021528241 -0.004335583065104002 0.006282893935204372 28.84045118728228 -0.035372790709883264 -0.017180413446302865 28.87595853389171 0.01508912999758615 0.0485553544612152 7.162619853999952 1.6183536757618378 11.527969640080604 -63.50941847070101 22.71433011498491 -21.09153766727174 -44.03481450543462 5.424752298138916 -93.82000178876665 -12.304669203436314 -2.9458184488250407 1.3979420398420448 -0.45153277697102046 0.04393643561441847 -8.132349380941529 0.04131785167679955 0.025223707014544253 44.548211553937485 0.021539712485030043 0.0447509305415708 44.58761041645606 12.457449256408607 -0.021745363612878987 -0.015772345371734477 -0.027436163532523976 -0.011448520812603169 -0.003955451092757908 0.014824422766919561 -0.031203290923868393 0.04653976638120556 11.137194900450337 -0.007302456050606883 -0.03340899997153786 -0.034759147195478915 0.04486660082016485 -0.02392398361348595 -0.0012751984482050418 -0.016027216362865627 0.008647929849295109 4.772901279488772 -0.010811429072272425 -0.028429485506701848 0.0270461006534334 0.034488859826219465 0.046742688908820315 0.00038232765692913285 -0.025947319708602184 0.032566791227618776 -5.586221357140011 0.015158575893639255 0.010932415349507677 -6.749354948175976 -0.030919747062410557 -0.022074176687953164 -6.712820196389662 -0.03472208784840032 0.022214448911156273 -0.04026732143031956 -0.014229133196500219 -0.015523003667313672 8.083495676299636 3.4616524342722492 -19.175694517250257 -0.006601603178350044 10.386752604946137 -0.012414298074754176 -5.651011894819428 -15.626863298492763 3.2337497743281625 0.0026077632010121144 0.011926542668659296 0.03138872956759056 0.037089413318131655 4.676250507457646 0.040374080869146324 12.480107339760314 -8.212015850025866 6.847364070033825 0.009414925510702839 46.42440206575113 -0.022071538878475197 -4.369884283860219 -14.78338370741859 -3.8191570565545203 -0.023907856349043913 -0.018054798554040217 0.0020041286441137666 -0.028002585098996502 -10.769431036431548 0.02449821888501809 
-0.003932970447520808 -0.022730961002688455 -0.01025155279289741 0.032163384467824185 0.02844171822219831 -0.009467757761038349 -4.591743558413898 -0.6057882495540678 -0.5339892514442314 -0.9615308459919892 3.4473116337398277 0.3823518446606746 -1.459715911839871 -2.2732620893079516 -0.844690531469866 -0.6540345905404823 -0.0615743934818315 -0.7971237004350293 0.2281936028493878 12.486293570971451 -0.31765976254758277 0.402503177775036 0.05133049280306586 -2.7958237449584256 0.6402661162806125 -14.882903508512618 -0.22325479505077592 -6.84855977730965 2.3955256409694012 -12.48738470830289 61.0169112028189 14.534182956786502 28.1846189888405 6.415305673213507 1.1097672423353053 100.33914812786213 21.762673777212783 -0.7134170274603269 -4.813663533928294 4.562137780149489 -0.1584537669455539 -1.5533203840629963 -0.04453094873077552 0.03472138935000522 -56.23129061797565 0.0016148198522182866 -0.020604429865032844 -56.22279202649067 -38.799139129599844 -0.014931668280889477 0.010755719684047958 0.02284905138222569 0.020786328991538063 0.0160285876943585 -0.030198466654048975 0.019222195412398578 0.027011592907082868 -36.67464645398048 -0.019441463058969412 -0.04468308326016333 -0.013722805258182414 -0.0160111642168467 -0.020336989959043632 0.0055755438318443665 0.03772168357764277 -0.04088244246174112 -19.747856639989248 0.044275358617643354 0.025776245087176835 -0.028625637992732364 0.04836164872137282 -0.03729814741001325 0.006075646205160239 -0.032564211445824096 -0.013345976786082066 24.09646852308724 0.03534803171499993 -0.03346874585946814 28.825951840214532 0.014417892028971252 -0.010660237477613656 28.89544069818141 0.04482882940165159 -0.022825728251051 7.470095772039953 1.705324925587628 11.422832143240251 -63.0017335856723 23.16464841537348 -22.557071391401553 -39.660545905728654 4.35325555132061 -93.30119359626616 -13.11458122987653 -3.826741585572582 2.2012146086255933 -0.5011141440841466 0.062485396593794845 -8.146363141600396 -0.006528842484750193 0.016297011601857626 44.5968093888623 -0.0030264036204548667 0.018961074048974767 44.532925993790805 12.479990247260092 0.035332473566558005 0.012400560233187198 -0.02617852789612478 -0.015018614191280087 0.0378866335795802 0.04821768839222832 -0.02704733318911543 0.03144260862461526 11.151829503398902 -0.025294149597885777 0.04240342773651806 -0.03330054979395053 0.02368282352619094 -0.006183771308307964 0.03680691286859332 -0.04732154876738385 -0.011394386439259361 4.821562239224193 0.01586063842294782 0.006525144253139566 0.02478720558034525 0.038459955509399846 0.0399315417823478 0.024214663633469687 -0.03016405493945686 0.046917852112479425 -5.602781239737786 -0.02955091878287254 -0.016700137687994904 -6.766906806586144 -0.03674657252470945 -0.02434899102499887 -6.7548622064013575 0.03247888818119879 -0.027576921940245552 0.03869828050839968 0.04556396446239909 -0.007708985417312658 8.061403387261818 3.4671922900995398 -19.23006594359642 0.0035882561683398605 10.425089554668174 0.022698565005621136 -5.630806285288029 -15.652369351061889 3.2275285103275553 0.021177026680624586 0.02214290224643194 -0.026282261275205585 0.03665050273906413 4.7126875851503405 0.03971678307523591 12.439530738239291 -8.24217436671616 6.922359616450207 0.0234455069735828 46.332682161709066 0.04528381194490104 -4.303248983658354 -14.766504662201406 -3.8327833037403716 0.03612068475693292 -0.004904534035659715 -0.023601893103501987 0.009819789614759577 -10.720205133777673 -0.029363481118407427 
0.01984999664240296 0.029662496140689477 -0.024310366915647846 0.0029944137729317425 -0.017704757087236164 0.026240685111716972 -4.559606617630951 -0.6046037521806469 -0.49112920231170915 -0.9842057818870714 3.4107925716663883 0.3488373085566434 -1.3962101371473372 -2.2492517527191107 -1.0130895334942054 -0.6252899913791972 -0.014817291025216277 -0.8141792676926505 0.24692747690170122 12.540581277174065 -0.3769017795055852 0.331385223082097 0.12441814583835517 -2.95009082355601 0.6367302861432462 -14.77108096974286 -0.24921731449453538 -6.806937642603783 2.3618998976331604 -12.390537798657437 61.66147359928593 15.62947157243663 28.47092212808202 6.835900884721363 1.3696707424740429 99.64585810621028 22.089663427523767 -0.7118099556147178 -5.093441794470294 4.537342048771678 -0.10319924289537652 -1.6021338318867373 -0.034589393573588034 -0.027195712020213505 -56.20795884263554 -0.016810631316121125 -0.002792732046579789 -56.234719269663955 -38.77870733166225 0.005803471200896753 -0.037983480595576845 -0.017365331750815578 -0.04349047900715753 0.03221085009346927 -0.031218833243039888 0.01787338296127197 0.007988628825077077 -36.67972440569725 -0.011696055070936831 0.018343568224765107 -0.012760030650258828 0.0444055106984199 0.04980701021816166 0.046859239571960615 0.04236100838893687 0.01627424853446872 -19.786443014770185 0.0430181153210778 0.006693343849649532 0.0025583755214598916 0.005562318427350463 0.04486449104257263 -0.03912088437051741 0.00386551845678218 0.047526008794172465 24.06186829585861 0.04323214273968895 -0.04839630906848387 28.871672492800297 0.03320199702091489 0.0355694906586189 28.82031692301513 -0.04300635496378315 -0.03585776373747006 7.707186535659463 1.7655960881384547 11.312201956852036 -62.15954801678556 23.800851349664942 -24.454929704274388 -33.99473448988139 2.752412833716722 -93.44662991311992 -13.639571814638058 -4.854031236435732 3.139364472446747 -0.4978159034302186 0.06124290017602341 -8.131068933946047 0.04947895306706159 0.03527057023703423 44.59164798263815 0.010577195061127101 -0.012029241055819677 44.60635922927748 12.437544733453851 0.04176965077345489 0.0168780195360573 -0.01706418634196834 0.04814806186910963 0.011168606291797993 0.03074389618900647 0.028637270070802953 0.02283358630278905 11.095074087833428 -0.004696775550733476 0.017056206596387697 -0.024627457111391398 -0.03580145938928984 -0.04089439444419172 0.03356467017787687 0.01161530141825101 0.037128910822100396 4.740294423975691 0.005563443634666659 -0.021416298639309637 -0.01915564216713403 -0.01570206608060267 -0.03687648704882112 0.04911042458164608 0.007287761288154279 -0.010156012039092438 -5.595855081036182 -0.03335441915678916 -0.03990590867530884 -6.67363115831865 -0.03766959331408479 0.01571261206395218 -6.705635304335745 0.04299761164100204 0.022125867379370803 0.019276791955302422 0.013487179024566125 -0.026331947599776005 8.082567810375629 3.4864740099979104 -19.209001994956115 0.03431543251563976 10.427190478128118 0.002945196310436422 -5.644747862216518 -15.659736169177977 3.2086742752053485 0.011594975395551179 -0.009685331161046506 0.015971798923553885 -0.0031927736265314087 4.7002545648718135 0.014191405841012809 12.496278507267874 -8.205583165851158 6.8492620448135835 -0.004891930086783666 46.395123131060615 0.00021639325133733663 -4.369753575866691 -14.759673748963625 -3.8018918307852005 -0.014033848551969997 -0.03260114718529488 0.017641291352833082 -0.02739179503286467 -10.70014241354192 0.030830848435890353 
